<?xml version="1.0" encoding="UTF-8"?>
<!DOCTYPE svg PUBLIC "-//W3C//DTD SVG 1.1//EN" "http://www.w3.org/Graphics/SVG/1.1/DTD/svg11.dtd">
<svg xmlns="http://www.w3.org/2000/svg" version="1.1" width="1636px" height="1616px" style="shape-rendering:geometricPrecision; text-rendering:geometricPrecision; image-rendering:optimizeQuality; fill-rule:evenodd; clip-rule:evenodd" xmlns:xlink="http://www.w3.org/1999/xlink">
<g><path style="opacity:1" fill="#fe9908" d="M -0.5,-0.5 C 544.833,-0.5 1090.17,-0.5 1635.5,-0.5C 1635.5,538.167 1635.5,1076.83 1635.5,1615.5C 1090.17,1615.5 544.833,1615.5 -0.5,1615.5C -0.5,1076.83 -0.5,538.167 -0.5,-0.5 Z"/></g>
<g><path style="opacity:1" fill="#fd920a" d="M 289.5,273.5 C 297.14,275.791 300.14,280.791 298.5,288.5C 294.817,292.396 290.483,293.396 285.5,291.5C 285.394,288.892 284.228,286.892 282,285.5C 281.333,282.833 281.333,280.167 282,277.5C 284.849,276.622 287.349,275.289 289.5,273.5 Z"/></g>
<g><path style="opacity:1" fill="#fd9209" d="M 1037.5,273.5 C 1041.99,274.479 1045.15,277.145 1047,281.5C 1048.19,288.155 1045.36,291.821 1038.5,292.5C 1031.39,289.628 1028.39,284.295 1029.5,276.5C 1032.58,276.38 1035.24,275.38 1037.5,273.5 Z"/></g>
<g><path style="opacity:1" fill="#fd9309" d="M 537.5,272.5 C 542.541,273.68 546.374,276.68 549,281.5C 549.146,287.044 546.48,290.711 541,292.5C 533.21,291.046 529.544,286.38 530,278.5C 532.844,276.841 535.344,274.841 537.5,272.5 Z"/></g>
<g><path style="opacity:1" fill="#fd9309" d="M 1276.5,273.5 C 1286.48,273.808 1290.48,278.808 1288.5,288.5C 1286.03,290.818 1283.19,292.484 1280,293.5C 1275.67,290.188 1272.84,285.855 1271.5,280.5C 1273.19,278.149 1274.86,275.815 1276.5,273.5 Z"/></g>
<g><path style="opacity:1" fill="#fd920a" d="M 824.5,400.5 C 832.244,402.217 835.577,406.883 834.5,414.5C 827.603,421.688 822.103,420.688 818,411.5C 817.186,409.098 817.353,406.765 818.5,404.5C 820.911,403.639 822.911,402.306 824.5,400.5 Z"/></g>
<g><path style="opacity:1" fill="#fd920a" d="M 573.5,400.5 C 575.604,400.201 577.604,400.534 579.5,401.5C 580.728,403.321 582.394,404.321 584.5,404.5C 585.746,407.733 586.246,411.066 586,414.5C 581.219,420.202 575.885,420.869 570,416.5C 568.451,412.519 568.285,408.519 569.5,404.5C 571.375,403.591 572.708,402.257 573.5,400.5 Z"/></g>
<g><path style="opacity:1" fill="#fd930a" d="M 286.5,423.5 C 295.767,423.176 299.934,427.51 299,436.5C 295.95,440.13 292.117,441.297 287.5,440C 285.924,437.817 284.258,435.651 282.5,433.5C 281.48,431.568 281.313,429.568 282,427.5C 283.667,426.267 285.167,424.933 286.5,423.5 Z"/></g>
<g><path style="opacity:1" fill="#fd9208" d="M 49.5,422.5 C 53.8724,425.056 56.5391,428.889 57.5,434C 52.0663,442.454 46.3996,442.621 40.5,434.5C 40.1667,433.5 39.8333,432.5 39.5,431.5C 40.1822,429.159 40.8489,426.826 41.5,424.5C 44.3725,424.198 47.0392,423.531 49.5,422.5 Z"/></g>
<g><path style="opacity:1" fill="#fe9203" d="M 568.5,536.5 C 565.5,536.5 562.5,536.5 559.5,536.5C 442.833,536.5 326.167,536.5 209.5,536.5C 184.33,535.833 158.997,535.167 133.5,534.5C 141.5,534.167 149.5,533.833 157.5,533.5C 289.372,533.885 420.872,534.219 552,534.5C 557.488,532.128 562.821,532.128 568,534.5C 568.772,534.355 569.439,534.022 570,533.5C 570.333,534.833 570.667,536.167 571,537.5C 571.423,536.044 572.256,535.544 573.5,536C 572.773,537.399 572.273,538.899 572,540.5C 571.333,539.167 570.667,539.167 570,540.5C 569.79,538.942 569.29,537.609 568.5,536.5 Z"/></g>
<g><path style="opacity:1" fill="#d2750b" d="M 209.5,536.5 C 326.167,536.5 442.833,536.5 559.5,536.5C 559.5,536.833 559.5,537.167 559.5,537.5C 416.332,537.167 273.332,537.5 130.5,538.5C 129.957,538.44 129.624,538.107 129.5,537.5C 156.158,536.5 182.825,536.167 209.5,536.5 Z"/></g>
<g><path style="opacity:1" fill="#421603" d="M 559.5,537.5 C 562.385,537.194 565.052,537.527 567.5,538.5C 422.167,538.5 276.833,538.5 131.5,538.5C 131.832,586.003 131.499,633.336 130.5,680.5C 130.5,633.167 130.5,585.833 130.5,538.5C 273.332,537.5 416.332,537.167 559.5,537.5 Z"/></g>
<g><path style="opacity:1" fill="#030102" d="M 567.5,538.5 C 567.5,541.5 567.5,544.5 567.5,547.5C 566.501,592.33 566.168,637.33 566.5,682.5C 555.986,682.172 545.653,682.506 535.5,683.5C 534.167,683.5 532.833,683.5 531.5,683.5C 531.247,679.96 530.581,676.627 529.5,673.5C 529.5,672.5 529.5,671.5 529.5,670.5C 528.913,664.963 527.913,659.63 526.5,654.5C 526.747,651.061 526.414,647.728 525.5,644.5C 525.638,639.586 524.972,634.919 523.5,630.5C 523.5,629.5 523.5,628.5 523.5,627.5C 523.247,623.96 522.581,620.627 521.5,617.5C 520.429,608.229 516.096,600.729 508.5,595C 501.888,590.963 494.888,587.797 487.5,585.5C 485.402,584.065 483.069,582.898 480.5,582C 462.145,577.095 443.478,574.595 424.5,574.5C 411.677,573.505 398.677,573.171 385.5,573.5C 385.333,713.5 385.5,853.5 386,993.5C 386.841,996.628 387.675,999.628 388.5,1002.5C 390.111,1011.73 395.111,1018.4 403.5,1022.5C 406.983,1025.24 410.983,1026.9 415.5,1027.5C 417.515,1028.92 419.848,1029.59 422.5,1029.5C 422.833,1029.5 423.167,1029.5 423.5,1029.5C 432.561,1031.8 441.895,1033.14 451.5,1033.5C 453.265,1034.46 455.265,1034.79 457.5,1034.5C 457.5,1038.83 457.5,1043.17 457.5,1047.5C 384.833,1047.5 312.167,1047.5 239.5,1047.5C 239.5,1043.17 239.5,1038.83 239.5,1034.5C 245.712,1034.48 251.712,1033.81 257.5,1032.5C 267.537,1030.54 277.537,1028.04 287.5,1025C 301.322,1018.85 309.489,1008.35 312,993.5C 312.499,987.843 312.666,982.176 312.5,976.5C 313.5,842.334 313.833,708.001 313.5,573.5C 296.991,573.17 280.658,573.504 264.5,574.5C 263.5,574.5 262.5,574.5 261.5,574.5C 256.269,574.444 251.269,575.111 246.5,576.5C 240.939,576.956 235.606,577.956 230.5,579.5C 213.522,582.322 197.855,588.489 183.5,598C 176.747,604.344 173.413,612.177 173.5,621.5C 172.028,625.919 171.362,630.586 171.5,635.5C 170.497,651.526 169.163,667.526 167.5,683.5C 155.167,683.5 142.833,683.5 130.5,683.5C 130.5,682.5 130.5,681.5 130.5,680.5C 131.499,633.336 131.832,586.003 131.5,538.5C 276.833,538.5 422.167,538.5 567.5,538.5 Z"/></g>
<g><path style="opacity:1" fill="#fd920b" d="M 1073.5,549.5 C 1081.34,550.826 1084.51,555.493 1083,563.5C 1079.68,567.53 1075.52,568.53 1070.5,566.5C 1067.28,562.199 1065.95,557.532 1066.5,552.5C 1069.24,552.113 1071.57,551.113 1073.5,549.5 Z"/></g>
<g><path style="opacity:1" fill="#fc8f0a" d="M 81.5,550.5 C 90.3875,550.245 94.2208,554.578 93,563.5C 89.6923,567.327 85.5256,568.494 80.5,567C 74.8797,560.918 75.213,555.418 81.5,550.5 Z"/></g>
<g><path style="opacity:1" fill="#fe930b" d="M 825.5,548.5 C 830.055,550.029 833.222,553.029 835,557.5C 835.502,565.653 831.669,568.82 823.5,567C 818.535,563.89 816.702,559.39 818,553.5C 820.022,552.214 822.189,551.214 824.5,550.5C 825.298,550.043 825.631,549.376 825.5,548.5 Z"/></g>
<g><path style="opacity:1" fill="#fd920a" d="M 1034.5,571.5 C 1037.58,570.903 1040.58,571.569 1043.5,573.5C 1049.92,581.077 1048.42,586.41 1039,589.5C 1037.44,588.971 1035.94,588.304 1034.5,587.5C 1032.89,585.269 1031.06,583.269 1029,581.5C 1028.37,579.365 1028.7,577.365 1030,575.5C 1031.99,574.672 1033.49,573.339 1034.5,571.5 Z"/></g>
<g><path style="opacity:1" fill="#ac741d" d="M 261.5,574.5 C 256.731,575.889 251.731,576.556 246.5,576.5C 251.269,575.111 256.269,574.444 261.5,574.5 Z"/></g>
<g><path style="opacity:1" fill="#fe8f02" d="M 298.5,586.5 C 297.292,587.234 295.959,587.567 294.5,587.5C 294.945,584.635 294.278,582.135 292.5,580C 290.597,579.226 288.93,579.56 287.5,581C 289.702,584.183 291.035,587.35 291.5,590.5C 287.813,588.781 284.813,586.281 282.5,583C 280.414,581.173 278.414,581.173 276.5,583C 278.363,587.414 280.696,591.581 283.5,595.5C 281.955,596.452 280.288,596.785 278.5,596.5C 278.719,595.325 278.386,594.325 277.5,593.5C 273.173,588.839 268.84,584.173 264.5,579.5C 264.5,578.167 264.5,576.833 264.5,575.5C 275.505,575.333 286.505,575.5 297.5,576C 293.696,577.494 294.029,578.328 298.5,578.5C 299.63,581.197 299.63,583.863 298.5,586.5 Z"/></g>
<g><path style="opacity:1" fill="#fe9e05" d="M 424.5,574.5 C 443.478,574.595 462.145,577.095 480.5,582C 483.069,582.898 485.402,584.065 487.5,585.5C 486.588,586.738 486.421,588.072 487,589.5C 489.596,591.02 492.429,591.853 495.5,592C 495.167,592.333 494.833,592.667 494.5,593C 500.378,596.2 504.378,600.867 506.5,607C 508.168,608.687 510.001,608.854 512,607.5C 513.326,607.755 514.326,608.422 515,609.5C 516.827,608.816 518.327,609.483 519.5,611.5C 516.902,612.68 515.236,614.68 514.5,617.5C 512.796,615.959 510.963,614.625 509,613.5C 506.888,614.608 505.054,616.108 503.5,618C 498.551,619.872 493.551,621.205 488.5,622C 488.957,621.586 489.291,621.086 489.5,620.5C 491.655,619.999 493.322,618.999 494.5,617.5C 498.025,615.648 501.025,613.148 503.5,610C 503.138,608.775 502.638,607.609 502,606.5C 499.842,603.298 497.342,600.465 494.5,598C 491.258,597.014 488.592,597.848 486.5,600.5C 485.155,599.653 484.155,598.487 483.5,597C 481.741,596.202 480.074,596.369 478.5,597.5C 480.289,600.655 481.122,603.988 481,607.5C 477.571,605.987 474.571,606.653 472,609.5C 471.667,609.167 471.333,608.833 471,608.5C 467.615,612.728 468.281,616.395 473,619.5C 473.029,622.367 473.862,624.867 475.5,627C 474.333,627.5 473.5,628.333 473,629.5C 472.51,628.207 472.343,626.873 472.5,625.5C 471.448,625.649 470.448,625.483 469.5,625C 468.275,621.573 466.275,618.74 463.5,616.5C 462.054,615.387 460.387,615.22 458.5,616C 457.167,617 457.167,618 458.5,619C 456.919,619.707 455.419,620.54 454,621.5C 452.612,620.446 451.112,620.28 449.5,621C 448.371,623.168 446.871,623.668 445,622.5C 444,623.5 443,624.5 442,625.5C 441.355,624.354 440.522,623.354 439.5,622.5C 441.817,621.769 443.984,620.102 446,617.5C 446.333,618.167 446.667,618.833 447,619.5C 449.234,617.3 451.734,615.467 454.5,614C 453.66,612.334 454.16,612.167 456,613.5C 457.487,612.747 457.654,611.914 456.5,611C 458.842,610.164 460.842,608.83 462.5,607C 464.679,605.013 466.512,605.18 468,607.5C 467.946,604.809 469.113,602.976 471.5,602C 468.304,598.221 468.971,595.555 473.5,594C 472.809,592.933 472.309,591.766 472,590.5C 470.534,592.325 468.701,592.825 466.5,592C 468.891,591.309 468.891,590.309 466.5,589C 464.444,588.689 462.444,588.189 460.5,587.5C 459.833,587.833 459.167,588.167 458.5,588.5C 454.024,587.144 450.024,585.478 446.5,583.5C 445.833,583.833 445.167,584.167 444.5,584.5C 438.885,583.711 433.218,583.211 427.5,583C 427,582.5 426.5,582 426,581.5C 422.751,581.042 419.751,581.042 417,581.5C 413.101,579.231 409.268,579.564 405.5,582.5C 404.232,581.572 402.899,581.405 401.5,582C 398.89,585.139 396.557,588.472 394.5,592C 396.053,594.048 397.386,596.215 398.5,598.5C 397.561,600.872 396.228,603.039 394.5,605C 396.41,608.333 397.41,611.667 397.5,615C 394.203,618.006 394.203,621.339 397.5,625C 395.713,630.212 394.713,635.712 394.5,641.5C 396.148,644.588 395.815,647.421 393.5,650C 394.573,651.313 395.24,652.813 395.5,654.5C 394.738,658.054 394.405,661.554 394.5,665C 395.156,668.07 396.156,670.236 397.5,671.5C 397.503,674.602 397.003,674.935 396,672.5C 395.5,673 395,673.5 394.5,674C 395.047,676.367 396.047,678.533 397.5,680.5C 397.023,681.478 396.357,682.311 395.5,683C 397.325,684.466 397.825,686.299 397,688.5C 395.844,687.007 395.01,687.174 394.5,689C 394.894,697.574 394.894,706.074 394.5,714.5C 395.5,714.5 396.5,714.5 397.5,714.5C 397.671,717.797 397.005,718.131 395.5,715.5C 394.814,721.387 394.147,727.22 393.5,733C 394.7,759.601 394.7,785.935 393.5,812C 395.886,831.579 395.886,851.245 393.5,871C 393.72,886.44 393.72,901.774 393.5,917C 395.906,919.582 395.906,922.248 393.5,925C 393.963,932.61 393.963,940.443 393.5,948.5C 394.21,954.478 394.877,960.478 395.5,966.5C 394.295,968.121 394.461,969.454 396,970.5C 397.018,969.294 397.518,969.627 397.5,971.5C 397.263,974.063 396.763,974.063 396,971.5C 394.56,972.93 394.226,974.597 395,976.5C 395.914,975.346 396.747,975.513 397.5,977C 394.234,979.957 394.234,982.623 397.5,985C 397.167,985.333 396.833,985.667 396.5,986C 397.894,986.956 398.561,988.289 398.5,990C 397.266,995.515 398.1,1000.35 401,1004.5C 401.49,1005.79 401.657,1007.13 401.5,1008.5C 398.19,1008.54 395.524,1007.21 393.5,1004.5C 392.355,1006.63 392.355,1008.8 393.5,1011C 395.105,1012.39 396.605,1013.89 398,1015.5C 399.337,1014.24 400.837,1013.74 402.5,1014C 396.955,1017.61 397.621,1019.61 404.5,1020C 402.381,1020.34 402.047,1021.18 403.5,1022.5C 395.111,1018.4 390.111,1011.73 388.5,1002.5C 388.575,998.103 388.075,993.77 387,989.5C 386.5,851.167 386.333,712.834 386.5,574.5C 399.167,574.5 411.833,574.5 424.5,574.5 Z"/></g>
<g><path style="opacity:1" fill="#fd9d07" d="M 219.5,611.5 C 219.07,614.862 220.07,617.695 222.5,620C 222.307,621.645 222.14,623.479 222,625.5C 221.598,624.128 221.098,622.795 220.5,621.5C 217.828,619.66 215.661,617.327 214,614.5C 210.463,615.203 207.963,617.203 206.5,620.5C 205.914,620.291 205.414,619.957 205,619.5C 202.093,620.431 199.26,621.431 196.5,622.5C 196.5,623.5 196.5,624.5 196.5,625.5C 193.183,624.779 189.849,624.612 186.5,625C 184.773,627.904 184.107,631.07 184.5,634.5C 186.933,634.273 188.599,635.273 189.5,637.5C 189.666,641.514 189.499,645.514 189,649.5C 187.8,647.588 186.133,646.255 184,645.5C 183.695,643.443 183.695,641.443 184,639.5C 182.303,640.364 181.137,641.697 180.5,643.5C 181.167,646.167 181.833,648.833 182.5,651.5C 180.65,652.242 179.984,653.242 180.5,654.5C 180.085,651.921 178.752,650.087 176.5,649C 177.167,648.667 177.833,648.333 178.5,648C 177.74,646.559 177.074,645.059 176.5,643.5C 177.447,641.941 178.113,640.274 178.5,638.5C 176.626,634.914 175.96,631.248 176.5,627.5C 178.321,625.528 178.488,623.194 177,620.5C 175.989,621.337 174.822,621.67 173.5,621.5C 173.413,612.177 176.747,604.344 183.5,598C 197.855,588.489 213.522,582.322 230.5,579.5C 226.909,581.284 223.242,583.284 219.5,585.5C 220.729,586.281 222.062,586.781 223.5,587C 222.167,587.667 220.833,588.333 219.5,589C 219.833,589.333 220.167,589.667 220.5,590C 219.333,591.167 218.167,592.333 217,593.5C 216.383,594.449 216.549,595.282 217.5,596C 215.284,597.644 212.951,599.144 210.5,600.5C 209.158,599.098 208.324,599.431 208,601.5C 207.667,600.833 207.333,600.167 207,599.5C 204.991,600.833 203.324,602.5 202,604.5C 201,604.167 200,603.833 199,603.5C 195.466,607.37 191.966,610.537 188.5,613C 189.253,614.487 190.086,614.654 191,613.5C 191.625,619.97 194.458,621.137 199.5,617C 200.358,615.212 201.358,613.378 202.5,611.5C 203.324,613.748 204.324,613.914 205.5,612C 205.043,611.586 204.709,611.086 204.5,610.5C 206.632,609.402 208.798,608.402 211,607.5C 211.333,608.167 211.667,608.833 212,609.5C 214.119,606.349 216.953,604.016 220.5,602.5C 221.208,600.108 220.542,597.941 218.5,596C 221.371,594.629 223.371,592.463 224.5,589.5C 225.748,588.96 226.915,588.293 228,587.5C 229.011,588.337 230.178,588.67 231.5,588.5C 231.626,585.442 233.126,585.109 236,587.5C 238,586.833 239.333,585.5 240,583.5C 242.081,585.415 241.915,587.081 239.5,588.5C 237.634,587.437 237.134,588.104 238,590.5C 238.915,591.328 239.581,592.328 240,593.5C 241.054,591.246 242.554,590.913 244.5,592.5C 247.332,589.508 250.165,586.508 253,583.5C 254.763,583.025 256.43,582.358 258,581.5C 258.414,581.957 258.914,582.291 259.5,582.5C 259.54,579.947 261.206,578.947 264.5,579.5C 268.84,584.173 273.173,588.839 277.5,593.5C 278.386,594.325 278.719,595.325 278.5,596.5C 280.288,596.785 281.955,596.452 283.5,595.5C 280.696,591.581 278.363,587.414 276.5,583C 278.414,581.173 280.414,581.173 282.5,583C 284.813,586.281 287.813,588.781 291.5,590.5C 291.035,587.35 289.702,584.183 287.5,581C 288.93,579.56 290.597,579.226 292.5,580C 294.278,582.135 294.945,584.635 294.5,587.5C 295.959,587.567 297.292,587.234 298.5,586.5C 300.876,585.488 301.876,583.655 301.5,581C 301.325,579.342 300.658,578.009 299.5,577C 304.068,574.368 307.235,575.534 309,580.5C 308.356,583.492 307.356,586.492 306,589.5C 301.405,588.031 297.905,589.531 295.5,594C 286.875,598.313 278.208,602.646 269.5,607C 269.833,607.333 270.167,607.667 270.5,608C 268.285,609.044 265.952,609.71 263.5,610C 258.607,614.368 253.107,617.868 247,620.5C 246.5,620.333 246,620.167 245.5,620C 248.322,617.344 250.655,614.344 252.5,611C 251.264,607.793 249.931,604.626 248.5,601.5C 246.891,600.112 245.058,599.112 243,598.5C 240.365,601.067 237.198,602.4 233.5,602.5C 234.113,599.031 232.779,597.031 229.5,596.5C 229.928,599.564 230.594,602.564 231.5,605.5C 230.127,605.343 228.793,605.51 227.5,606C 224.909,608.117 222.242,609.95 219.5,611.5 Z"/></g>
<g><path style="opacity:1" fill="#fe9106" d="M 261.5,586.5 C 266.028,589.361 269.028,593.361 270.5,598.5C 269.704,602.922 267.037,605.588 262.5,606.5C 257.894,604.065 254.561,600.565 252.5,596C 252.796,594.112 253.296,592.278 254,590.5C 256.633,589.248 259.133,587.914 261.5,586.5 Z"/></g>
<g><path style="opacity:1" fill="#2a1100" d="M 567.5,547.5 C 567.5,592.833 567.5,638.167 567.5,683.5C 556.833,683.5 546.167,683.5 535.5,683.5C 545.653,682.506 555.986,682.172 566.5,682.5C 566.168,637.33 566.501,592.33 567.5,547.5 Z"/></g>
<g><path style="opacity:1" fill="#fe930b" d="M 494.5,617.5 C 492.834,618.666 491.167,618.666 489.5,617.5C 487.176,614.177 484.509,611.177 481.5,608.5C 481.646,611.424 480.313,613.924 477.5,616C 478.167,617 478.833,618 479.5,619C 482.496,619.522 484.829,621.022 486.5,623.5C 483.823,625.264 484.156,626.43 487.5,627C 483.508,630.331 479.175,633.164 474.5,635.5C 473.646,634.478 472.646,633.645 471.5,633C 472.993,631.844 472.826,631.01 471,630.5C 467.945,631.611 465.112,633.111 462.5,635C 460.19,635.497 457.857,635.663 455.5,635.5C 455.657,634.127 455.49,632.793 455,631.5C 452.059,628.987 450.892,625.987 451.5,622.5C 454.155,624.444 455.489,627.11 455.5,630.5C 457.861,630.674 460.194,631.007 462.5,631.5C 465.197,626.048 464.197,621.214 459.5,617C 460.793,616.51 462.127,616.343 463.5,616.5C 466.275,618.74 468.275,621.573 469.5,625C 470.448,625.483 471.448,625.649 472.5,625.5C 472.343,626.873 472.51,628.207 473,629.5C 473.5,628.333 474.333,627.5 475.5,627C 473.862,624.867 473.029,622.367 473,619.5C 468.281,616.395 467.615,612.728 471,608.5C 471.333,608.833 471.667,609.167 472,609.5C 474.571,606.653 477.571,605.987 481,607.5C 481.122,603.988 480.289,600.655 478.5,597.5C 480.074,596.369 481.741,596.202 483.5,597C 484.155,598.487 485.155,599.653 486.5,600.5C 488.592,597.848 491.258,597.014 494.5,598C 497.342,600.465 499.842,603.298 502,606.5C 502.638,607.609 503.138,608.775 503.5,610C 501.025,613.148 498.025,615.648 494.5,617.5 Z"/></g>
<g><path style="opacity:1" fill="#fe940a" d="M 219.5,611.5 C 220.552,611.351 221.552,611.517 222.5,612C 225,615.167 227.5,618.333 230,621.5C 231.271,625.166 230.104,627.666 226.5,629C 228.225,628.591 229.892,628.758 231.5,629.5C 230.019,630.48 228.685,631.647 227.5,633C 222.66,633.776 218.327,635.609 214.5,638.5C 213.914,638.291 213.414,637.957 213,637.5C 210.942,638.109 210.109,639.109 210.5,640.5C 209.614,639.675 209.281,638.675 209.5,637.5C 205.191,639.456 200.858,641.456 196.5,643.5C 193.748,642.003 191.414,640.003 189.5,637.5C 188.599,635.273 186.933,634.273 184.5,634.5C 184.107,631.07 184.773,627.904 186.5,625C 189.849,624.612 193.183,624.779 196.5,625.5C 196.5,624.5 196.5,623.5 196.5,622.5C 199.26,621.431 202.093,620.431 205,619.5C 205.414,619.957 205.914,620.291 206.5,620.5C 207.963,617.203 210.463,615.203 214,614.5C 215.661,617.327 217.828,619.66 220.5,621.5C 221.098,622.795 221.598,624.128 222,625.5C 222.14,623.479 222.307,621.645 222.5,620C 220.07,617.695 219.07,614.862 219.5,611.5 Z"/></g>
<g><path style="opacity:1" fill="#9d5918" d="M 521.5,617.5 C 522.581,620.627 523.247,623.96 523.5,627.5C 522.778,627.082 522.278,626.416 522,625.5C 521.503,622.854 521.336,620.187 521.5,617.5 Z"/></g>
<g><path style="opacity:1" fill="#a8641b" d="M 173.5,621.5 C 173.638,626.414 172.972,631.081 171.5,635.5C 171.362,630.586 172.028,625.919 173.5,621.5 Z"/></g>
<g><path style="opacity:1" fill="#a66a19" d="M 523.5,630.5 C 524.972,634.919 525.638,639.586 525.5,644.5C 523.896,640.1 523.229,635.434 523.5,630.5 Z"/></g>
<g><path style="opacity:1" fill="#d58a1b" d="M 424.5,574.5 C 411.833,574.5 399.167,574.5 386.5,574.5C 386.333,712.834 386.5,851.167 387,989.5C 388.075,993.77 388.575,998.103 388.5,1002.5C 387.675,999.628 386.841,996.628 386,993.5C 385.5,853.5 385.333,713.5 385.5,573.5C 398.677,573.171 411.677,573.505 424.5,574.5 Z"/></g>
<g><path style="opacity:1" fill="#9d6011" d="M 526.5,654.5 C 527.913,659.63 528.913,664.963 529.5,670.5C 527.227,665.549 526.227,660.216 526.5,654.5 Z"/></g>
<g><path style="opacity:1" fill="#bd7723" d="M 559.5,537.5 C 559.5,537.167 559.5,536.833 559.5,536.5C 562.5,536.5 565.5,536.5 568.5,536.5C 568.5,585.833 568.5,635.167 568.5,684.5C 555.989,684.829 543.655,684.495 531.5,683.5C 532.833,683.5 534.167,683.5 535.5,683.5C 546.167,683.5 556.833,683.5 567.5,683.5C 567.5,638.167 567.5,592.833 567.5,547.5C 567.5,544.5 567.5,541.5 567.5,538.5C 565.052,537.527 562.385,537.194 559.5,537.5 Z"/></g>
<g><path style="opacity:1" fill="#ac631b" d="M 529.5,673.5 C 530.581,676.627 531.247,679.96 531.5,683.5C 530.778,683.082 530.278,682.416 530,681.5C 529.503,678.854 529.336,676.187 529.5,673.5 Z"/></g>
<g><path style="opacity:1" fill="#c5842e" d="M 130.5,680.5 C 130.5,681.5 130.5,682.5 130.5,683.5C 142.833,683.5 155.167,683.5 167.5,683.5C 155.011,684.495 142.344,684.829 129.5,684.5C 129.232,682.901 129.566,681.568 130.5,680.5 Z"/></g>
<g><path style="opacity:1" fill="#fd8d09" d="M 574.5,702.5 C 583.198,702.543 586.698,706.876 585,715.5C 579.351,722.267 574.018,721.934 569,714.5C 567.375,708.757 569.208,704.757 574.5,702.5 Z"/></g>
<g><path style="opacity:1" fill="#fd9209" d="M 1524.5,723.5 C 1534.34,722.511 1539.17,726.844 1539,736.5C 1536.04,739.399 1532.54,741.399 1528.5,742.5C 1525.1,739.365 1522.43,735.698 1520.5,731.5C 1520.97,728.302 1522.3,725.636 1524.5,723.5 Z"/></g>
<g><path style="opacity:1" fill="#fd9208" d="M 45.5,723.5 C 50.7315,722.531 54.2315,724.531 56,729.5C 58.4125,734.118 57.2459,737.618 52.5,740C 44.48,741.148 40.3134,737.648 40,729.5C 41.3597,726.977 43.193,724.977 45.5,723.5 Z"/></g>
<g><path style="opacity:1" fill="#fd9309" d="M 785.5,723.5 C 792.994,722.797 797.661,726.297 799.5,734C 799.561,735.711 798.894,737.044 797.5,738C 789.203,744.288 783.537,742.288 780.5,732C 781.233,730.234 781.567,728.401 781.5,726.5C 783.619,726.532 784.952,725.532 785.5,723.5 Z"/></g>
<g><path style="opacity:1" fill="#fd920a" d="M 1034.5,723.5 C 1043.17,723.513 1047.34,727.846 1047,736.5C 1044.2,739.863 1040.7,741.696 1036.5,742C 1030.76,738.358 1028.43,733.191 1029.5,726.5C 1031.93,726.727 1033.6,725.727 1034.5,723.5 Z"/></g>
<g><path style="opacity:1" fill="#fd950c" d="M 288.5,723.5 C 296.544,724.251 300.044,728.585 299,736.5C 296.629,739.206 293.963,741.539 291,743.5C 290.316,744.784 290.483,745.951 291.5,747C 289.833,747.333 288.167,747.667 286.5,748C 286.833,748.333 287.167,748.667 287.5,749C 284.697,749.678 282.197,750.844 280,752.5C 278.667,751.833 277.333,751.167 276,750.5C 273.833,752 274,753.167 276.5,754C 273.338,755.748 270.338,757.748 267.5,760C 264.469,762.015 261.136,763.181 257.5,763.5C 257.5,762.5 257.5,761.5 257.5,760.5C 256.5,760.5 255.5,760.5 254.5,760.5C 254.66,762.199 254.494,763.866 254,765.5C 252.383,766.851 251.216,768.518 250.5,770.5C 251.016,769.242 250.35,768.242 248.5,767.5C 246.829,769.978 244.496,771.478 241.5,772C 241.833,772.333 242.167,772.667 242.5,773C 240.462,774.236 239.295,776.069 239,778.5C 237.992,778.018 236.825,777.852 235.5,778C 235.833,777.667 236.167,777.333 236.5,777C 235.382,775.926 234.382,774.76 233.5,773.5C 233.687,774.817 233.02,776.15 231.5,777.5C 229.833,778.833 228.167,778.833 226.5,777.5C 224.07,772.277 221.57,767.611 219,763.5C 218.549,765.929 217.715,766.096 216.5,764C 219.972,760.53 223.805,758.363 228,757.5C 228.78,754.743 229.28,751.909 229.5,749C 232.838,748.5 234.505,750 234.5,753.5C 235.873,753.657 237.207,753.49 238.5,753C 240.563,748.782 243.896,747.448 248.5,749C 248.167,749.333 247.833,749.667 247.5,750C 248.579,750.956 249.745,751.789 251,752.5C 252.076,749.64 252.909,746.64 253.5,743.5C 255.664,742.586 257.664,741.419 259.5,740C 261.167,739.333 262.833,739.333 264.5,740C 267.621,741.612 270.288,743.779 272.5,746.5C 275.208,743.835 274.541,742.502 270.5,742.5C 270.762,741.022 270.429,739.689 269.5,738.5C 266.041,735.693 264.874,732.027 266,727.5C 266.29,729.952 266.956,732.285 268,734.5C 272.063,739.558 276.396,744.224 281,748.5C 282.28,748.387 283.113,747.72 283.5,746.5C 282.5,744.833 281.167,743.5 279.5,742.5C 281.322,739.801 282.655,739.968 283.5,743C 284.416,743.374 285.25,743.874 286,744.5C 285.537,739.72 284.037,735.22 281.5,731C 281.667,729.833 281.833,728.667 282,727.5C 283.932,725.7 286.098,724.367 288.5,723.5 Z"/></g>
<g><path style="opacity:1" fill="#cc7817" d="M 559.5,823.5 C 564.066,823.975 568.566,823.975 573,823.5C 575.675,823.657 577.841,824.657 579.5,826.5C 572.604,826.141 565.938,825.141 559.5,823.5 Z"/></g>
<g><path style="opacity:1" fill="#442603" d="M 264.5,574.5 C 280.658,573.504 296.991,573.17 313.5,573.5C 313.833,708.001 313.5,842.334 312.5,976.5C 312.5,842.5 312.5,708.5 312.5,574.5C 296.5,574.5 280.5,574.5 264.5,574.5 Z"/></g>
<g><path style="opacity:1" fill="#101010" d="M 347.5,832.5 C 354.527,832.52 361.36,833.52 368,835.5C 368.638,839.17 368.138,842.67 366.5,846C 362.793,847.723 358.959,849.223 355,850.5C 353.833,850.333 352.667,850.167 351.5,850C 355.458,848.17 359.458,846.336 363.5,844.5C 364.316,842.713 365.316,841.046 366.5,839.5C 365.754,838.264 365.421,836.93 365.5,835.5C 359.862,834.541 354.195,834.374 348.5,835C 342.3,838.263 336.3,841.763 330.5,845.5C 332.747,846.245 334.58,847.578 336,849.5C 338.352,854.058 341.519,857.891 345.5,861C 347.635,861.635 349.635,861.301 351.5,860C 354.361,858.168 356.861,856.001 359,853.5C 359.167,854 359.333,854.5 359.5,855C 355.127,861.383 349.127,864.05 341.5,863C 341.957,863.414 342.291,863.914 342.5,864.5C 338.774,869.766 333.774,873.433 327.5,875.5C 328.074,877.059 328.74,878.559 329.5,880C 325.861,886 320.861,890 314.5,892C 316.305,889.597 318.638,887.93 321.5,887C 327.645,882.306 327.979,877.306 322.5,872C 340.77,869.963 343.77,862.13 331.5,848.5C 330.914,848.709 330.414,849.043 330,849.5C 329.481,848.484 328.647,847.818 327.5,847.5C 322.786,847.688 319.12,849.688 316.5,853.5C 315.479,852.998 315.312,852.332 316,851.5C 321.482,846.841 327.649,843.341 334.5,841C 338.294,837.118 342.627,834.285 347.5,832.5 Z"/></g>
<g><path style="opacity:1" fill="#060302" d="M 559.5,823.5 C 565.938,825.141 572.604,826.141 579.5,826.5C 597.16,831.327 608.327,842.661 613,860.5C 613.667,871.167 613.667,881.833 613,892.5C 610.787,905.44 604.621,915.94 594.5,924C 588.246,927.135 581.913,929.968 575.5,932.5C 591.132,957.454 607.132,982.12 623.5,1006.5C 623.804,1007.15 624.137,1007.82 624.5,1008.5C 613.186,1009.5 601.853,1009.83 590.5,1009.5C 579.068,991.625 567.402,973.958 555.5,956.5C 551.946,949.289 547.613,942.622 542.5,936.5C 533.348,935.506 524.015,935.173 514.5,935.5C 514.5,960.167 514.5,984.833 514.5,1009.5C 504.5,1009.5 494.5,1009.5 484.5,1009.5C 484.5,947.167 484.5,884.833 484.5,822.5C 509.522,822.215 534.522,822.548 559.5,823.5 Z"/></g>
<g><path style="opacity:1" fill="#fe9502" d="M 564.5,851.5 C 572.995,853.33 578.661,858.33 581.5,866.5C 581.5,867.167 581.5,867.833 581.5,868.5C 580.571,869.936 579.405,871.269 578,872.5C 574.914,869.245 572.414,865.578 570.5,861.5C 568.869,859.703 566.869,858.536 564.5,858C 565.833,857.333 565.833,856.667 564.5,856C 559.198,855.605 554.198,856.605 549.5,859C 550.833,860 550.833,861 549.5,862C 545.189,862.946 541.189,864.446 537.5,866.5C 537.657,867.873 537.49,869.207 537,870.5C 536.326,869.422 535.326,868.755 534,868.5C 531.71,869.621 529.543,870.955 527.5,872.5C 524.867,871.699 523.033,870.033 522,867.5C 520.779,868.774 519.946,870.274 519.5,872C 522.502,880.498 527.169,887.998 533.5,894.5C 530.289,895.78 527.122,897.114 524,898.5C 523.667,897.5 523.333,896.5 523,895.5C 523.188,899.232 521.688,902.066 518.5,904C 518.833,904.333 519.167,904.667 519.5,905C 518.552,905.483 517.552,905.649 516.5,905.5C 517.614,887.491 517.614,869.491 516.5,851.5C 532.5,851.5 548.5,851.5 564.5,851.5 Z"/></g>
<g><path style="opacity:1" fill="#e68a15" d="M 515.5,850.5 C 532.009,850.17 548.342,850.504 564.5,851.5C 548.5,851.5 532.5,851.5 516.5,851.5C 517.614,869.491 517.614,887.491 516.5,905.5C 516.167,905.5 515.833,905.5 515.5,905.5C 515.5,887.167 515.5,868.833 515.5,850.5 Z"/></g>
<g><path style="opacity:1" fill="#fd930a" d="M 784.5,871.5 C 790.269,870.634 794.769,872.634 798,877.5C 800.46,883.417 798.626,887.584 792.5,890C 790.833,890.667 789.167,890.667 787.5,890C 782.016,885.583 780.183,880.083 782,873.5C 782.995,872.934 783.828,872.267 784.5,871.5 Z"/></g>
<g><path style="opacity:1" fill="#fe9a06" d="M 581.5,868.5 C 582.418,874.775 582.751,881.108 582.5,887.5C 580.604,900.059 573.271,906.726 560.5,907.5C 545.129,908.15 530.129,907.484 515.5,905.5C 515.833,905.5 516.167,905.5 516.5,905.5C 517.552,905.649 518.552,905.483 519.5,905C 519.167,904.667 518.833,904.333 518.5,904C 521.688,902.066 523.188,899.232 523,895.5C 523.333,896.5 523.667,897.5 524,898.5C 527.122,897.114 530.289,895.78 533.5,894.5C 527.169,887.998 522.502,880.498 519.5,872C 519.946,870.274 520.779,868.774 522,867.5C 523.033,870.033 524.867,871.699 527.5,872.5C 529.543,870.955 531.71,869.621 534,868.5C 535.326,868.755 536.326,869.422 537,870.5C 537.49,869.207 537.657,867.873 537.5,866.5C 541.189,864.446 545.189,862.946 549.5,862C 550.833,861 550.833,860 549.5,859C 554.198,856.605 559.198,855.605 564.5,856C 565.833,856.667 565.833,857.333 564.5,858C 566.869,858.536 568.869,859.703 570.5,861.5C 572.414,865.578 574.914,869.245 578,872.5C 579.405,871.269 580.571,869.936 581.5,868.5 Z"/></g>
<g><path style="opacity:1" fill="#fe9308" d="M 45.5,871.5 C 53.0378,872.539 56.8711,876.872 57,884.5C 55.1667,886 53.3333,887.5 51.5,889C 49.4787,889.14 47.6453,889.307 46,889.5C 42.6411,886.616 40.1411,883.116 38.5,879C 40.511,876.098 42.8443,873.598 45.5,871.5 Z"/></g>
<g><path style="opacity:1" fill="#ae660b" d="M 581.5,866.5 C 583.055,870.203 583.722,874.203 583.5,878.5C 583.498,881.686 583.165,884.686 582.5,887.5C 582.751,881.108 582.418,874.775 581.5,868.5C 581.5,867.833 581.5,867.167 581.5,866.5 Z"/></g>
<g><path style="opacity:1" fill="#ff9205" d="M 558.5,860.5 C 560.167,860.5 561.833,860.5 563.5,860.5C 563.34,862.199 563.506,863.866 564,865.5C 566.238,867.309 567.405,869.642 567.5,872.5C 568.5,872.5 569.5,872.5 570.5,872.5C 572.941,882.152 569.274,886.986 559.5,887C 558.139,885.416 557.472,883.582 557.5,881.5C 561.306,881.98 564.639,880.98 567.5,878.5C 563.343,877.165 559.51,877.832 556,880.5C 554.779,879.728 553.779,878.728 553,877.5C 552.375,874.257 551.209,871.257 549.5,868.5C 549.667,867.5 549.833,866.5 550,865.5C 552.601,863.325 555.434,861.658 558.5,860.5 Z"/></g>
<g><path style="opacity:1" fill="#fe8f03" d="M 538.5,871.5 C 545.987,873.156 549.487,877.823 549,885.5C 546.775,888.735 543.775,890.735 540,891.5C 537.849,891.357 536.182,890.357 535,888.5C 528.058,880.873 529.225,875.206 538.5,871.5 Z"/></g>
<g><path style="opacity:1" fill="#a95f17" d="M 515.5,850.5 C 515.5,868.833 515.5,887.167 515.5,905.5C 530.129,907.484 545.129,908.15 560.5,907.5C 545.342,908.496 530.009,908.83 514.5,908.5C 514.17,888.993 514.503,869.659 515.5,850.5 Z"/></g>
<g><path style="opacity:1" fill="#8f5a1d" d="M 542.5,936.5 C 533.5,936.5 524.5,936.5 515.5,936.5C 515.5,961.167 515.5,985.833 515.5,1010.5C 504.986,1010.83 494.653,1010.49 484.5,1009.5C 494.5,1009.5 504.5,1009.5 514.5,1009.5C 514.5,984.833 514.5,960.167 514.5,935.5C 524.015,935.173 533.348,935.506 542.5,936.5 Z"/></g>
<g><path style="opacity:1" fill="#fa8e09" d="M 555.5,956.5 C 567.402,973.958 579.068,991.625 590.5,1009.5C 590.5,1009.83 590.5,1010.17 590.5,1010.5C 601.326,1011.33 612.326,1011.83 623.5,1012C 616.512,1012.59 609.679,1013.42 603,1014.5C 597.169,1013.68 591.502,1013.02 586,1012.5C 582.521,1014.55 578.855,1016.22 575,1017.5C 573.439,1017.4 571.939,1017.06 570.5,1016.5C 568.568,1012.7 567.235,1008.7 566.5,1004.5C 570.329,1001.83 573.995,999 577.5,996C 576.407,992.88 574.907,992.713 573,995.5C 572.5,995 572,994.5 571.5,994C 573.004,992.663 574.004,990.996 574.5,989C 571.322,986.022 568.489,982.855 566,979.5C 567.126,977.05 566.459,975.05 564,973.5C 563.692,974.308 563.192,974.975 562.5,975.5C 559.12,970.163 556.453,964.496 554.5,958.5C 554.863,957.817 555.196,957.15 555.5,956.5 Z"/></g>
<g><path style="opacity:1" fill="#603805" d="M 623.5,1006.5 C 625.176,1007.18 625.843,1008.52 625.5,1010.5C 613.833,1010.5 602.167,1010.5 590.5,1010.5C 590.5,1010.17 590.5,1009.83 590.5,1009.5C 601.853,1009.83 613.186,1009.5 624.5,1008.5C 624.137,1007.82 623.804,1007.15 623.5,1006.5 Z"/></g>
<g><path style="opacity:1" fill="#f79210" d="M 238.5,1047.5 C 238.833,1047.5 239.167,1047.5 239.5,1047.5C 312.167,1047.5 384.833,1047.5 457.5,1047.5C 458.486,1043.03 458.819,1038.36 458.5,1033.5C 460.045,1034.23 460.878,1035.56 461,1037.5C 463.173,1034.72 463.673,1034.89 462.5,1038C 464.422,1041.35 465.089,1041.35 464.5,1038C 465.701,1037.1 466.535,1035.93 467,1034.5C 468.813,1035.61 469.646,1034.94 469.5,1032.5C 470.552,1032.65 471.552,1032.48 472.5,1032C 471.639,1029.68 472.639,1028.51 475.5,1028.5C 475.384,1025.09 477.05,1023.76 480.5,1024.5C 480.729,1026.43 481.562,1028.1 483,1029.5C 482.937,1033.98 483.77,1038.15 485.5,1042C 483.604,1043.81 483.104,1045.97 484,1048.5C 487.601,1048.18 491.434,1047.85 495.5,1047.5C 495.626,1050.47 497.126,1052.47 500,1053.5C 502.33,1056.47 502.83,1059.63 501.5,1063C 498.611,1065.61 495.278,1067.44 491.5,1068.5C 489.971,1068.47 488.804,1067.8 488,1066.5C 486.059,1062.95 484.393,1059.29 483,1055.5C 480.667,1052.17 478.333,1048.83 476,1045.5C 473.86,1048.72 473.027,1052.06 473.5,1055.5C 473.667,1055.83 473.833,1056.17 474,1056.5C 475.333,1055.83 476.667,1055.17 478,1054.5C 478.948,1056.57 480.448,1058.07 482.5,1059C 480.169,1060.8 480.169,1062.8 482.5,1065C 482.719,1067.57 481.719,1069.91 479.5,1072C 481.158,1075.18 480.158,1076.68 476.5,1076.5C 475.02,1071.94 472.52,1067.94 469,1064.5C 467.89,1062.6 467.724,1060.77 468.5,1059C 467.377,1057.96 466.044,1057.29 464.5,1057C 465.572,1055.72 466.905,1055.38 468.5,1056C 467.183,1054.23 465.516,1052.9 463.5,1052C 464.022,1051.44 464.355,1050.77 464.5,1050C 462.204,1048.47 461.037,1046.64 461,1044.5C 460.362,1045.61 459.862,1046.78 459.5,1048C 461.604,1056.16 460.604,1056.83 456.5,1050C 396.167,1049.33 335.833,1049.33 275.5,1050C 271.133,1052.3 266.633,1054.13 262,1055.5C 259.711,1056.02 257.544,1055.36 255.5,1053.5C 254.205,1054.1 252.872,1054.6 251.5,1055C 253.037,1057.31 253.537,1059.81 253,1062.5C 248.775,1066.03 243.941,1068.03 238.5,1068.5C 238.657,1067.13 238.49,1065.79 238,1064.5C 235.351,1059.87 232.684,1055.21 230,1050.5C 229.333,1048.5 229.333,1046.5 230,1044.5C 231.883,1043.35 232.716,1041.68 232.5,1039.5C 233.5,1039.5 234.5,1039.5 235.5,1039.5C 235.797,1042.72 235.13,1045.72 233.5,1048.5C 233.808,1049.31 234.308,1049.97 235,1050.5C 235.219,1049.06 235.719,1047.73 236.5,1046.5C 237.183,1046.86 237.85,1047.2 238.5,1047.5 Z"/></g>
<g><path style="opacity:1" fill="#9f5714" d="M 415.5,1027.5 C 418.152,1027.41 420.485,1028.08 422.5,1029.5C 419.848,1029.59 417.515,1028.92 415.5,1027.5 Z"/></g>
<g><path style="opacity:1" fill="#da861c" d="M 423.5,1029.5 C 435.384,1030.23 447.051,1031.56 458.5,1033.5C 456.167,1033.5 453.833,1033.5 451.5,1033.5C 441.895,1033.14 432.561,1031.8 423.5,1029.5 Z"/></g>
<g><path style="opacity:1" fill="#54290f" d="M 257.5,1032.5 C 251.712,1033.81 245.712,1034.48 239.5,1034.5C 239.5,1038.83 239.5,1043.17 239.5,1047.5C 239.167,1047.5 238.833,1047.5 238.5,1047.5C 238.5,1042.83 238.5,1038.17 238.5,1033.5C 244.829,1033.1 251.162,1032.77 257.5,1032.5 Z"/></g>
<g><path style="opacity:1" fill="#fc920a" d="M 784.5,1020.5 C 793.684,1020.19 798.517,1024.52 799,1033.5C 797.122,1035.04 795.622,1036.88 794.5,1039C 791.77,1039.73 789.103,1039.56 786.5,1038.5C 783.768,1035.5 781.435,1032.33 779.5,1029C 780.514,1025.6 782.18,1022.76 784.5,1020.5 Z"/></g>
<g><path style="opacity:1" fill="#fd8f08" d="M 537.5,1020.5 C 545.492,1021.67 549.326,1026.33 549,1034.5C 544.083,1040.99 539.083,1040.99 534,1034.5C 532.304,1032.44 531.137,1030.11 530.5,1027.5C 532.216,1024.45 534.549,1022.12 537.5,1020.5 Z"/></g>
<g><path style="opacity:1" fill="#491e01" d="M 451.5,1033.5 C 453.833,1033.5 456.167,1033.5 458.5,1033.5C 458.819,1038.36 458.486,1043.03 457.5,1047.5C 457.5,1043.17 457.5,1038.83 457.5,1034.5C 455.265,1034.79 453.265,1034.46 451.5,1033.5 Z"/></g>
<g><path style="opacity:1" fill="#fd920a" d="M 1276.5,1168.5 C 1283.94,1168.81 1288.61,1172.64 1290.5,1180C 1288.78,1185.2 1285.12,1188.04 1279.5,1188.5C 1270.69,1182.56 1269.69,1175.89 1276.5,1168.5 Z"/></g>
<g><path style="opacity:1" fill="#fd930a" d="M 785.5,1168.5 C 793.507,1169.34 798.007,1173.68 799,1181.5C 791.93,1191.15 785.93,1190.48 781,1179.5C 780.083,1174.73 781.583,1171.07 785.5,1168.5 Z"/></g>
<g><path style="opacity:1" fill="#fd9208" d="M 46.5,1316.5 C 50.9827,1318.13 54.4827,1321.13 57,1325.5C 57.6667,1327.5 57.6667,1329.5 57,1331.5C 50.0361,1337.62 44.3695,1336.62 40,1328.5C 39.7831,1323.27 41.9498,1319.27 46.5,1316.5 Z"/></g>
<g><path style="opacity:1" fill="#fd920a" d="M 787.5,1316.5 C 793.564,1318.23 797.231,1322.23 798.5,1328.5C 794.927,1337.38 789.427,1338.72 782,1332.5C 779.826,1329.45 779.159,1326.12 780,1322.5C 782.114,1319.88 784.614,1317.88 787.5,1316.5 Z"/></g>
<g><path style="opacity:1" fill="#fd9309" d="M 538.5,1317.5 C 547.697,1319.73 550.364,1325.23 546.5,1334C 542.337,1337.21 538.503,1337.04 535,1333.5C 533.111,1330.89 531.611,1328.06 530.5,1325C 532.127,1321.31 534.793,1318.81 538.5,1317.5 Z"/></g>
<g><path style="opacity:1" fill="#fc9209" d="M 289.5,1469.5 C 295.245,1470.99 298.578,1474.66 299.5,1480.5C 299.61,1482.37 298.944,1483.87 297.5,1485C 295.13,1486.18 292.797,1487.35 290.5,1488.5C 288.813,1488.24 287.313,1487.57 286,1486.5C 284.042,1483.88 282.542,1481.05 281.5,1478C 281.667,1476.83 281.833,1475.67 282,1474.5C 284.479,1472.69 286.979,1471.02 289.5,1469.5 Z"/></g>
<g><path style="opacity:1" fill="#fd9208" d="M 45.5,1470.5 C 52.3678,1470.52 56.3678,1474.02 57.5,1481C 52.5708,1489.75 47.0708,1490.25 41,1482.5C 38.8704,1479.34 39.0371,1476.34 41.5,1473.5C 43.1836,1472.85 44.5169,1471.85 45.5,1470.5 Z"/></g>
<g><path style="opacity:1" fill="#fc9209" d="M 1278.5,1468.5 C 1282.98,1470.13 1286.48,1473.13 1289,1477.5C 1290.29,1482.56 1288.46,1486.06 1283.5,1488C 1281.42,1488.81 1279.42,1488.64 1277.5,1487.5C 1270.03,1480.28 1270.36,1473.95 1278.5,1468.5 Z"/></g>
</svg>
